<?xml version="1.0" encoding="UTF-8"?>
<svg id="Ebene_1" data-name="Ebene 1" xmlns="http://www.w3.org/2000/svg" viewBox="0 0 774 321">
  <defs>
    <style>
      .cls-1 {
        fill: #fff;
      }
    </style>
  </defs>
  <path d="M773.9,61.06c-9.35,32.47-18.7,64.94-28.06,97.4-15.1,52.37-30.17,104.74-45.49,157.05-.49,1.68-3.52,3.71-5.38,3.73-29.32,.23-58.65,.09-87.97,.25-4.19,.02-4.55-1.12-3.47-4.82,22.35-76.91,44.52-153.87,67-230.75,1.79-6.13,.71-7.18-5.44-7.17-74.31,.2-148.62,.1-222.93,.2-4.28,0-6.04,0-4.41-5.43,7.08-23.71,13.55-47.6,20.25-71.42,90.64,0,181.28,0,271.92,0,3.43,1.09,6.94,1.97,10.26,3.31,18.92,7.64,29.42,22.17,33.73,41.66v15.99Z"/>
  <path d="M365.02,.1c-8.09,28.43-16.12,56.89-24.29,85.29-12.37,42.96-24.78,85.9-37.47,128.76-.6,2.03-4.04,4.58-6.17,4.61-29.15,.3-58.3,.12-87.45,.29-4.28,.02-4.8-.91-3.62-4.94,20.68-70.83,41.2-141.7,61.74-212.56,.14-.48,.2-.97,.29-1.46,32.32,0,64.65,0,96.97,0Z"/>
  <path d="M.12,280.93c3.26-10.87,6.75-21.67,9.66-32.63,1.07-4.02,2.5-5.47,6.9-5.46,91.11,.15,182.23,.15,273.35,0,4.67,0,5.07,1.17,3.79,5.15-7.4,22.98-17.33,44.42-37.7,58.97-11.3,8.07-24.23,12.79-38.15,12.84-62.13,.25-124.27,.44-186.39-.11-16.31-.15-26.8-10.05-31.46-25.76,0-4.33,0-8.66,0-12.99Z"/>
  <path d="M414.32,320.36c-14.49,0-28.98-.08-43.47,.06-3.78,.04-5.34-.27-3.99-4.88,20.5-70.02,40.77-140.11,61.32-210.11,.57-1.95,3.72-4.47,5.69-4.49,28.98-.32,57.96-.15,86.94-.39,4.85-.04,5.41,1.16,4.12,5.57-20.48,70.02-40.79,140.09-61.35,210.09-.51,1.72-3.45,3.83-5.3,3.87-14.65,.32-29.31,.18-43.97,.18v.1Z"/>
</svg>